<svg width="377" height="52" viewBox="0 0 377 52" fill="none" xmlns="http://www.w3.org/2000/svg">
<g clip-path="url(#clip0_3_10)">
<g filter="url(#filter0_d_3_10)">
<path d="M23.3125 -0.8125C25.4167 -0.8125 27.3229 -0.5 29.0312 0.125C30.7396 0.75 32.1875 1.60417 33.375 2.6875C34.5833 3.77083 35.5104 5.04167 36.1562 6.5C36.8021 7.9375 37.125 9.46875 37.125 11.0938V30.0938C37.125 31.7188 36.8021 33.2604 36.1562 34.7188C35.5104 36.1562 34.5833 37.4167 33.375 38.5C32.1875 39.5833 30.7396 40.4375 29.0312 41.0625C27.3229 41.6875 25.4167 42 23.3125 42H13.6875C11.5833 42 9.67708 41.6875 7.96875 41.0625C6.26042 40.4375 4.80208 39.5833 3.59375 38.5C2.40625 37.4167 1.48958 36.1562 0.84375 34.7188C0.197917 33.2604 -0.125 31.7188 -0.125 30.0938V11.0938C-0.125 9.46875 0.197917 7.9375 0.84375 6.5C1.48958 5.04167 2.40625 3.77083 3.59375 2.6875C4.80208 1.60417 6.26042 0.75 7.96875 0.125C9.67708 -0.5 11.5833 -0.8125 13.6875 -0.8125H23.3125ZM18.4375 2.5L16.7188 2H12.625L10 2.4375L8 4.4375V27.8438H11.3438V5.59375C11.6354 5.53125 11.8958 5.48958 12.125 5.46875C12.3542 5.44792 12.6042 5.39583 12.875 5.3125H16.4375C16.6667 5.39583 16.8854 5.44792 17.0938 5.46875C17.3229 5.48958 17.5521 5.53125 17.7812 5.59375V18.8438H21.125V5.59375L22.4688 5.3125H26.0625C26.3125 5.39583 26.5625 5.44792 26.8125 5.46875C27.0625 5.48958 27.3229 5.53125 27.5938 5.59375V27.8438H30.9062V4.4375L28.9375 2.4375L26.3125 2H22.2188L20.5312 2.5L19.4688 4.65625L18.4375 2.5ZM48.1875 24.5312V27.8438H66.25V24.5312H58.9062V5.3125H66.25V2H48.1875V5.3125H55.5625V24.5312H48.1875ZM60.3125 -0.8125C62.4167 -0.8125 64.3229 -0.5 66.0312 0.125C67.7396 0.75 69.1875 1.60417 70.375 2.6875C71.5833 3.77083 72.5104 5.04167 73.1562 6.5C73.8021 7.9375 74.125 9.46875 74.125 11.0938V30.0938C74.125 31.7188 73.8021 33.2604 73.1562 34.7188C72.5104 36.1562 71.5833 37.4167 70.375 38.5C69.1875 39.5833 67.7396 40.4375 66.0312 41.0625C64.3229 41.6875 62.4167 42 60.3125 42H50.6875C48.5833 42 46.6771 41.6875 44.9688 41.0625C43.2604 40.4375 41.8021 39.5833 40.5938 38.5C39.4062 37.4167 38.4896 36.1562 37.8438 34.7188C37.1979 33.2604 36.875 31.7188 36.875 30.0938V11.0938C36.875 9.46875 37.1979 7.9375 37.8438 6.5C38.4896 5.04167 39.4062 3.77083 40.5938 2.6875C41.8021 1.60417 43.2604 0.75 44.9688 0.125C46.6771 -0.5 48.5833 -0.8125 50.6875 -0.8125H60.3125ZM94.4375 14.3438L105.188 3.71875L102.938 1.09375L90.0625 13.8438V2H86.75V27.8438H90.0625V18.0625C90.4167 17.7708 90.7188 17.5104 90.9688 17.2812C91.2396 17.0312 91.5417 16.7604 91.875 16.4688L102.094 28.4375L104.781 26.125L94.4375 14.3438ZM97.3125 -0.8125C99.4167 -0.8125 101.323 -0.5 103.031 0.125C104.74 0.75 106.188 1.60417 107.375 2.6875C108.583 3.77083 109.51 5.04167 110.156 6.5C110.802 7.9375 111.125 9.46875 111.125 11.0938V30.0938C111.125 31.7188 110.802 33.2604 110.156 34.7188C109.51 36.1562 108.583 37.4167 107.375 38.5C106.188 39.5833 104.74 40.4375 103.031 41.0625C101.323 41.6875 99.4167 42 97.3125 42H87.6875C85.5833 42 83.6771 41.6875 81.9688 41.0625C80.2604 40.4375 78.8021 39.5833 77.5938 38.5C76.4062 37.4167 75.4896 36.1562 74.8438 34.7188C74.1979 33.2604 73.875 31.7188 73.875 30.0938V11.0938C73.875 9.46875 74.1979 7.9375 74.8438 6.5C75.4896 5.04167 76.4062 3.77083 77.5938 2.6875C78.8021 1.60417 80.2604 0.75 81.9688 0.125C83.6771 -0.5 85.5833 -0.8125 87.6875 -0.8125H97.3125ZM134.312 -0.8125C136.417 -0.8125 138.323 -0.5 140.031 0.125C141.74 0.75 143.188 1.60417 144.375 2.6875C145.583 3.77083 146.51 5.04167 147.156 6.5C147.802 7.9375 148.125 9.46875 148.125 11.0938V30.0938C148.125 31.7188 147.802 33.2604 147.156 34.7188C146.51 36.1562 145.583 37.4167 144.375 38.5C143.188 39.5833 141.74 40.4375 140.031 41.0625C138.323 41.6875 136.417 42 134.312 42H124.688C122.583 42 120.677 41.6875 118.969 41.0625C117.26 40.4375 115.802 39.5833 114.594 38.5C113.406 37.4167 112.49 36.1562 111.844 34.7188C111.198 33.2604 110.875 31.7188 110.875 30.0938V11.0938C110.875 9.46875 111.198 7.9375 111.844 6.5C112.49 5.04167 113.406 3.77083 114.594 2.6875C115.802 1.60417 117.26 0.75 118.969 0.125C120.677 -0.5 122.583 -0.8125 124.688 -0.8125H134.312ZM138.406 7L137.938 4.375L135.969 2.375L132.812 2H126.031L122.906 2.375L120.938 4.375L120.469 7V21.8438L120.938 24.4688L122.906 26.4375L126.031 26.8438H133.906L137.562 26.375L136.781 23L133.844 23.5H126.25L124.25 23.1875L123.812 21.3125V14.875H138.406V7ZM123.812 11.5938V7.375L124.062 5.59375L126.25 5.25H132.625L134.75 5.59375L135.062 7.4375V11.5938H123.812Z" fill="black" fill-opacity="0.5" shape-rendering="crispEdges"/>
</g>
<g filter="url(#filter1_i_3_10)">
<path d="M175.938 24.5312H166.344V2H163.031V27.8438H175.938V24.5312ZM172.312 -0.8125C174.417 -0.8125 176.323 -0.5 178.031 0.125C179.74 0.75 181.188 1.60417 182.375 2.6875C183.583 3.77083 184.51 5.04167 185.156 6.5C185.802 7.9375 186.125 9.46875 186.125 11.0938V30.0938C186.125 31.7188 185.802 33.2604 185.156 34.7188C184.51 36.1562 183.583 37.4167 182.375 38.5C181.188 39.5833 179.74 40.4375 178.031 41.0625C176.323 41.6875 174.417 42 172.312 42H162.688C160.583 42 158.677 41.6875 156.969 41.0625C155.26 40.4375 153.802 39.5833 152.594 38.5C151.406 37.4167 150.49 36.1562 149.844 34.7188C149.198 33.2604 148.875 31.7188 148.875 30.0938V11.0938C148.875 9.46875 149.198 7.9375 149.844 6.5C150.49 5.04167 151.406 3.77083 152.594 2.6875C153.802 1.60417 155.26 0.75 156.969 0.125C158.677 -0.5 160.583 -0.8125 162.688 -0.8125H172.312ZM209.312 -0.8125C211.417 -0.8125 213.323 -0.5 215.031 0.125C216.74 0.75 218.188 1.60417 219.375 2.6875C220.583 3.77083 221.51 5.04167 222.156 6.5C222.802 7.9375 223.125 9.46875 223.125 11.0938V30.0938C223.125 31.7188 222.802 33.2604 222.156 34.7188C221.51 36.1562 220.583 37.4167 219.375 38.5C218.188 39.5833 216.74 40.4375 215.031 41.0625C213.323 41.6875 211.417 42 209.312 42H199.688C197.583 42 195.677 41.6875 193.969 41.0625C192.26 40.4375 190.802 39.5833 189.594 38.5C188.406 37.4167 187.49 36.1562 186.844 34.7188C186.198 33.2604 185.875 31.7188 185.875 30.0938V11.0938C185.875 9.46875 186.198 7.9375 186.844 6.5C187.49 5.04167 188.406 3.77083 189.594 2.6875C190.802 1.60417 192.26 0.75 193.969 0.125C195.677 -0.5 197.583 -0.8125 199.688 -0.8125H209.312ZM213.406 7L212.938 4.375L210.969 2.375L207.812 2H201.031L197.906 2.375L195.938 4.375L195.469 7V21.8438L195.938 24.4688L197.906 26.4375L201.031 26.8438H208.906L212.562 26.375L211.781 23L208.844 23.5H201.25L199.25 23.1875L198.812 21.3125V14.875H213.406V7ZM198.812 11.5938V7.375L199.062 5.59375L201.25 5.25H207.625L209.75 5.59375L210.062 7.4375V11.5938H198.812ZM246.312 -0.8125C248.417 -0.8125 250.323 -0.5 252.031 0.125C253.74 0.75 255.188 1.60417 256.375 2.6875C257.583 3.77083 258.51 5.04167 259.156 6.5C259.802 7.9375 260.125 9.46875 260.125 11.0938V30.0938C260.125 31.7188 259.802 33.2604 259.156 34.7188C258.51 36.1562 257.583 37.4167 256.375 38.5C255.188 39.5833 253.74 40.4375 252.031 41.0625C250.323 41.6875 248.417 42 246.312 42H236.688C234.583 42 232.677 41.6875 230.969 41.0625C229.26 40.4375 227.802 39.5833 226.594 38.5C225.406 37.4167 224.49 36.1562 223.844 34.7188C223.198 33.2604 222.875 31.7188 222.875 30.0938V11.0938C222.875 9.46875 223.198 7.9375 223.844 6.5C224.49 5.04167 225.406 3.77083 226.594 2.6875C227.802 1.60417 229.26 0.75 230.969 0.125C232.677 -0.5 234.583 -0.8125 236.688 -0.8125H246.312ZM252.812 7.0625L252.375 4.4375L250.406 2.4375L247.188 2H233.25V27.8438H247.188L250.406 27.4688L252.375 25.5L252.812 22.8125V7.0625ZM249.062 24.2188L247 24.5312H236.5V5.3125H247L249.188 5.65625L249.5 7.5V22.4688L249.062 24.2188ZM280.438 14.3438L291.188 3.71875L288.938 1.09375L276.062 13.8438V2H272.75V27.8438H276.062V18.0625C276.417 17.7708 276.719 17.5104 276.969 17.2812C277.24 17.0312 277.542 16.7604 277.875 16.4688L288.094 28.4375L290.781 26.125L280.438 14.3438ZM283.312 -0.8125C285.417 -0.8125 287.323 -0.5 289.031 0.125C290.74 0.75 292.188 1.60417 293.375 2.6875C294.583 3.77083 295.51 5.04167 296.156 6.5C296.802 7.9375 297.125 9.46875 297.125 11.0938V30.0938C297.125 31.7188 296.802 33.2604 296.156 34.7188C295.51 36.1562 294.583 37.4167 293.375 38.5C292.188 39.5833 290.74 40.4375 289.031 41.0625C287.323 41.6875 285.417 42 283.312 42H273.688C271.583 42 269.677 41.6875 267.969 41.0625C266.26 40.4375 264.802 39.5833 263.594 38.5C262.406 37.4167 261.49 36.1562 260.844 34.7188C260.198 33.2604 259.875 31.7188 259.875 30.0938V11.0938C259.875 9.46875 260.198 7.9375 260.844 6.5C261.49 5.04167 262.406 3.77083 263.594 2.6875C264.802 1.60417 266.26 0.75 267.969 0.125C269.677 -0.5 271.583 -0.8125 273.688 -0.8125H283.312ZM320.312 -0.8125C322.417 -0.8125 324.323 -0.5 326.031 0.125C327.74 0.75 329.188 1.60417 330.375 2.6875C331.583 3.77083 332.51 5.04167 333.156 6.5C333.802 7.9375 334.125 9.46875 334.125 11.0938V30.0938C334.125 31.7188 333.802 33.2604 333.156 34.7188C332.51 36.1562 331.583 37.4167 330.375 38.5C329.188 39.5833 327.74 40.4375 326.031 41.0625C324.323 41.6875 322.417 42 320.312 42H310.688C308.583 42 306.677 41.6875 304.969 41.0625C303.26 40.4375 301.802 39.5833 300.594 38.5C299.406 37.4167 298.49 36.1562 297.844 34.7188C297.198 33.2604 296.875 31.7188 296.875 30.0938V11.0938C296.875 9.46875 297.198 7.9375 297.844 6.5C298.49 5.04167 299.406 3.77083 300.594 2.6875C301.802 1.60417 303.26 0.75 304.969 0.125C306.677 -0.5 308.583 -0.8125 310.688 -0.8125H320.312ZM326.75 7.0625L326.312 4.4375L324.344 2.4375L321.125 2H312.75L309.562 2.4375L307.562 4.4375L307.188 7.0625V22.8125L307.562 25.5L309.625 27.4688L312.75 27.8438H321.125L324.344 27.4688L326.312 25.5L326.75 22.8125V7.0625ZM323 24.2188L320.938 24.5312H312.938L310.906 24.2188L310.438 22.3438V7.375L310.75 5.65625L312.938 5.3125H320.938L323.125 5.65625L323.438 7.5V22.4688L323 24.2188ZM353.656 28.0625L355.75 27.4688L357.625 25.625L363.75 2.625L360.125 2L354.469 24.3438L353.781 24.5938L352.938 24.4062L347.312 2L343.656 2.625L349.812 25.625L351.656 27.4688L353.656 28.0625ZM357.312 -0.8125C359.417 -0.8125 361.323 -0.5 363.031 0.125C364.74 0.75 366.188 1.60417 367.375 2.6875C368.583 3.77083 369.51 5.04167 370.156 6.5C370.802 7.9375 371.125 9.46875 371.125 11.0938V30.0938C371.125 31.7188 370.802 33.2604 370.156 34.7188C369.51 36.1562 368.583 37.4167 367.375 38.5C366.188 39.5833 364.74 40.4375 363.031 41.0625C361.323 41.6875 359.417 42 357.312 42H347.688C345.583 42 343.677 41.6875 341.969 41.0625C340.26 40.4375 338.802 39.5833 337.594 38.5C336.406 37.4167 335.49 36.1562 334.844 34.7188C334.198 33.2604 333.875 31.7188 333.875 30.0938V11.0938C333.875 9.46875 334.198 7.9375 334.844 6.5C335.49 5.04167 336.406 3.77083 337.594 2.6875C338.802 1.60417 340.26 0.75 341.969 0.125C343.677 -0.5 345.583 -0.8125 347.688 -0.8125H357.312Z" fill="#FF7A00"/>
</g>
</g>
<defs>
<filter id="filter0_d_3_10" x="-5.125" y="-0.8125" width="158.25" height="52.8125" filterUnits="userSpaceOnUse" color-interpolation-filters="sRGB">
<feFlood flood-opacity="0" result="BackgroundImageFix"/>
<feColorMatrix in="SourceAlpha" type="matrix" values="0 0 0 0 0 0 0 0 0 0 0 0 0 0 0 0 0 0 127 0" result="hardAlpha"/>
<feOffset dy="5"/>
<feGaussianBlur stdDeviation="2.5"/>
<feComposite in2="hardAlpha" operator="out"/>
<feColorMatrix type="matrix" values="0 0 0 0 0 0 0 0 0 0 0 0 0 0 0 0 0 0 0.25 0"/>
<feBlend mode="normal" in2="BackgroundImageFix" result="effect1_dropShadow_3_10"/>
<feBlend mode="normal" in="SourceGraphic" in2="effect1_dropShadow_3_10" result="shape"/>
</filter>
<filter id="filter1_i_3_10" x="148.875" y="-0.8125" width="222.25" height="47.8125" filterUnits="userSpaceOnUse" color-interpolation-filters="sRGB">
<feFlood flood-opacity="0" result="BackgroundImageFix"/>
<feBlend mode="normal" in="SourceGraphic" in2="BackgroundImageFix" result="shape"/>
<feColorMatrix in="SourceAlpha" type="matrix" values="0 0 0 0 0 0 0 0 0 0 0 0 0 0 0 0 0 0 127 0" result="hardAlpha"/>
<feOffset dy="5"/>
<feGaussianBlur stdDeviation="2.5"/>
<feComposite in2="hardAlpha" operator="arithmetic" k2="-1" k3="1"/>
<feColorMatrix type="matrix" values="0 0 0 0 0 0 0 0 0 0 0 0 0 0 0 0 0 0 0.25 0"/>
<feBlend mode="normal" in2="shape" result="effect1_innerShadow_3_10"/>
</filter>
<clipPath id="clip0_3_10">
<rect width="377" height="52" fill="white"/>
</clipPath>
</defs>
</svg>
