<svg width="63" height="59" viewBox="0 0 63 59" fill="none" xmlns="http://www.w3.org/2000/svg">
<g clip-path="url(#clip0_3_11)">
<g filter="url(#filter0_i_3_11)">
<path d="M52.9375 26.5312H43.3438V4H40.0312V29.8438H52.9375V26.5312ZM49.3125 1.1875C51.4167 1.1875 53.3229 1.5 55.0312 2.125C56.7396 2.75 58.1875 3.60417 59.375 4.6875C60.5833 5.77083 61.5104 7.04167 62.1562 8.5C62.8021 9.9375 63.125 11.4688 63.125 13.0938V32.0938C63.125 33.7188 62.8021 35.2604 62.1562 36.7188C61.5104 38.1562 60.5833 39.4167 59.375 40.5C58.1875 41.5833 56.7396 42.4375 55.0312 43.0625C53.3229 43.6875 51.4167 44 49.3125 44H39.6875C37.5833 44 35.6771 43.6875 33.9688 43.0625C32.2604 42.4375 30.8021 41.5833 29.5938 40.5C28.4062 39.4167 27.4896 38.1562 26.8438 36.7188C26.1979 35.2604 25.875 33.7188 25.875 32.0938V13.0938C25.875 11.4688 26.1979 9.9375 26.8438 8.5C27.4896 7.04167 28.4062 5.77083 29.5938 4.6875C30.8021 3.60417 32.2604 2.75 33.9688 2.125C35.6771 1.5 37.5833 1.1875 39.6875 1.1875H49.3125Z" fill="#FF7A00"/>
</g>
<g filter="url(#filter1_d_3_11)">
<path d="M23.3125 11.1875C25.4167 11.1875 27.3229 11.5 29.0312 12.125C30.7396 12.75 32.1875 13.6042 33.375 14.6875C34.5833 15.7708 35.5104 17.0417 36.1562 18.5C36.8021 19.9375 37.125 21.4688 37.125 23.0938V42.0938C37.125 43.7188 36.8021 45.2604 36.1562 46.7188C35.5104 48.1562 34.5833 49.4167 33.375 50.5C32.1875 51.5833 30.7396 52.4375 29.0312 53.0625C27.3229 53.6875 25.4167 54 23.3125 54H13.6875C11.5833 54 9.67708 53.6875 7.96875 53.0625C6.26042 52.4375 4.80208 51.5833 3.59375 50.5C2.40625 49.4167 1.48958 48.1562 0.84375 46.7188C0.197917 45.2604 -0.125 43.7188 -0.125 42.0938V23.0938C-0.125 21.4688 0.197917 19.9375 0.84375 18.5C1.48958 17.0417 2.40625 15.7708 3.59375 14.6875C4.80208 13.6042 6.26042 12.75 7.96875 12.125C9.67708 11.5 11.5833 11.1875 13.6875 11.1875H23.3125ZM18.4375 14.5L16.7188 14H12.625L10 14.4375L8 16.4375V39.8438H11.3438V17.5938C11.6354 17.5312 11.8958 17.4896 12.125 17.4688C12.3542 17.4479 12.6042 17.3958 12.875 17.3125H16.4375C16.6667 17.3958 16.8854 17.4479 17.0938 17.4688C17.3229 17.4896 17.5521 17.5312 17.7812 17.5938V30.8438H21.125V17.5938L22.4688 17.3125H26.0625C26.3125 17.3958 26.5625 17.4479 26.8125 17.4688C27.0625 17.4896 27.3229 17.5312 27.5938 17.5938V39.8438H30.9062V16.4375L28.9375 14.4375L26.3125 14H22.2188L20.5312 14.5L19.4688 16.6562L18.4375 14.5Z" fill="white"/>
</g>
</g>
<defs>
<filter id="filter0_i_3_11" x="25.875" y="1.1875" width="37.25" height="47.8125" filterUnits="userSpaceOnUse" color-interpolation-filters="sRGB">
<feFlood flood-opacity="0" result="BackgroundImageFix"/>
<feBlend mode="normal" in="SourceGraphic" in2="BackgroundImageFix" result="shape"/>
<feColorMatrix in="SourceAlpha" type="matrix" values="0 0 0 0 0 0 0 0 0 0 0 0 0 0 0 0 0 0 127 0" result="hardAlpha"/>
<feOffset dy="5"/>
<feGaussianBlur stdDeviation="2.5"/>
<feComposite in2="hardAlpha" operator="arithmetic" k2="-1" k3="1"/>
<feColorMatrix type="matrix" values="0 0 0 0 0 0 0 0 0 0 0 0 0 0 0 0 0 0 0.25 0"/>
<feBlend mode="normal" in2="shape" result="effect1_innerShadow_3_11"/>
</filter>
<filter id="filter1_d_3_11" x="-4.125" y="11.1875" width="45.25" height="50.8125" filterUnits="userSpaceOnUse" color-interpolation-filters="sRGB">
<feFlood flood-opacity="0" result="BackgroundImageFix"/>
<feColorMatrix in="SourceAlpha" type="matrix" values="0 0 0 0 0 0 0 0 0 0 0 0 0 0 0 0 0 0 127 0" result="hardAlpha"/>
<feOffset dy="4"/>
<feGaussianBlur stdDeviation="2"/>
<feComposite in2="hardAlpha" operator="out"/>
<feColorMatrix type="matrix" values="0 0 0 0 0 0 0 0 0 0 0 0 0 0 0 0 0 0 0.25 0"/>
<feBlend mode="normal" in2="BackgroundImageFix" result="effect1_dropShadow_3_11"/>
<feBlend mode="normal" in="SourceGraphic" in2="effect1_dropShadow_3_11" result="shape"/>
</filter>
<clipPath id="clip0_3_11">
<rect width="63" height="59" fill="white"/>
</clipPath>
</defs>
</svg>
