<svg width="311" height="45" viewBox="0 0 311 45" fill="none" xmlns="http://www.w3.org/2000/svg">
<g clip-path="url(#clip0_11_5)">
<g filter="url(#filter0_d_11_5)">
<path d="M3.888 37V5.368H6.816L12.336 20.2L14.304 25.72H14.496L16.368 20.2L21.984 5.368H24.912V37H22.752V15.4C22.752 14.28 22.784 13.032 22.848 11.656C22.912 10.248 22.976 9 23.04 7.912H22.896L21.168 13.336L15.216 28.6H13.488L7.632 13.336L5.76 7.912H5.664C5.696 9 5.76 10.248 5.856 11.656C5.952 13.032 6 14.28 6 15.4V37H3.888ZM47.4053 37V15.784H35.8372V13.96H49.5173V37H47.4053ZM47.9332 8.344C47.2933 8.344 46.7493 8.152 46.3013 7.768C45.8853 7.352 45.6773 6.776 45.6773 6.04C45.6773 5.336 45.8853 4.776 46.3013 4.36C46.7493 3.944 47.2933 3.736 47.9332 3.736C48.5733 3.736 49.1013 3.944 49.5173 4.36C49.9653 4.776 50.1893 5.336 50.1893 6.04C50.1893 6.776 49.9653 7.352 49.5173 7.768C49.1013 8.152 48.5733 8.344 47.9332 8.344ZM68.2665 37V2.488H70.4265V27.832H70.6185L85.4025 13.96H88.0425L78.5865 22.84L89.5785 37H87.1305L77.1465 24.184L70.4265 30.472V37H68.2665ZM109.384 37.576C107.72 37.576 106.152 37.304 104.68 36.76C103.208 36.216 101.912 35.432 100.792 34.408C99.7037 33.352 98.8397 32.072 98.1997 30.568C97.5597 29.064 97.2397 27.368 97.2397 25.48C97.2397 23.624 97.5597 21.944 98.1997 20.44C98.8397 18.936 99.6877 17.672 100.744 16.648C101.8 15.592 103.016 14.792 104.392 14.248C105.8 13.672 107.256 13.384 108.76 13.384C110.328 13.384 111.752 13.64 113.032 14.152C114.312 14.632 115.4 15.336 116.296 16.264C117.192 17.16 117.88 18.264 118.36 19.576C118.84 20.888 119.08 22.376 119.08 24.04C119.08 24.328 119.08 24.632 119.08 24.952C119.08 25.24 119.048 25.528 118.984 25.816H99.3997C99.4317 27.416 99.7197 28.84 100.264 30.088C100.84 31.336 101.592 32.376 102.52 33.208C103.448 34.04 104.504 34.68 105.688 35.128C106.904 35.544 108.184 35.752 109.528 35.752C111.096 35.752 112.504 35.528 113.752 35.08C115 34.6 116.168 33.992 117.256 33.256L118.12 34.84C117.096 35.544 115.896 36.184 114.52 36.76C113.144 37.304 111.432 37.576 109.384 37.576ZM108.808 15.208C107.688 15.208 106.6 15.4 105.544 15.784C104.52 16.168 103.576 16.744 102.712 17.512C101.88 18.248 101.176 19.16 100.6 20.248C100.024 21.336 99.6557 22.584 99.4957 23.992H117.16C117 21.016 116.152 18.808 114.616 17.368C113.08 15.928 111.144 15.208 108.808 15.208Z" fill="#1A0C00"/>
</g>
<g filter="url(#filter1_d_11_5)">
<path d="M131.712 38L138 6.368H140.064L134.16 36.224H150.672L150.288 38H131.712ZM170.189 38.576C167.181 38.576 164.829 37.728 163.133 36.032C161.469 34.304 160.637 31.888 160.637 28.784C160.637 26.704 160.989 24.784 161.693 23.024C162.397 21.264 163.341 19.744 164.525 18.464C165.741 17.184 167.133 16.192 168.701 15.488C170.269 14.752 171.917 14.384 173.645 14.384C175.021 14.384 176.221 14.608 177.245 15.056C178.301 15.504 179.181 16.112 179.885 16.88C180.589 17.648 181.117 18.576 181.469 19.664C181.853 20.72 182.045 21.872 182.045 23.12C182.045 23.856 181.981 24.56 181.853 25.232C181.757 25.904 181.661 26.368 181.565 26.624H162.797C162.701 27.296 162.653 27.968 162.653 28.64C162.653 31.136 163.325 33.136 164.669 34.64C166.045 36.112 167.981 36.848 170.477 36.848C172.109 36.848 173.645 36.544 175.085 35.936C176.557 35.296 177.837 34.496 178.925 33.536L179.885 34.976C178.829 35.904 177.453 36.736 175.757 37.472C174.061 38.208 172.205 38.576 170.189 38.576ZM173.453 16.064C172.333 16.064 171.229 16.288 170.141 16.736C169.085 17.152 168.093 17.76 167.165 18.56C166.269 19.328 165.469 20.256 164.765 21.344C164.061 22.432 163.517 23.632 163.133 24.944H179.933C179.997 24.624 180.045 24.304 180.077 23.984C180.109 23.632 180.125 23.296 180.125 22.976C180.125 20.864 179.533 19.184 178.349 17.936C177.165 16.688 175.533 16.064 173.453 16.064ZM199.45 38.576C197.018 38.576 195.05 37.84 193.546 36.368C192.074 34.896 191.338 32.704 191.338 29.792C191.338 27.744 191.658 25.792 192.298 23.936C192.97 22.08 193.882 20.448 195.034 19.04C196.186 17.632 197.546 16.512 199.114 15.68C200.682 14.816 202.378 14.384 204.202 14.384C205.93 14.384 207.418 14.72 208.666 15.392C209.914 16.064 210.906 16.96 211.642 18.08H211.835L212.747 13.52L214.762 3.488H216.731L209.77 38H208.09L208.619 34.304H208.426C207.147 35.552 205.739 36.576 204.202 37.376C202.666 38.176 201.082 38.576 199.45 38.576ZM199.834 36.848C201.307 36.848 202.827 36.416 204.395 35.552C205.994 34.688 207.53 33.44 209.002 31.808L211.403 20.288C210.411 18.784 209.307 17.712 208.09 17.072C206.875 16.432 205.595 16.112 204.251 16.112C202.715 16.112 201.275 16.496 199.93 17.264C198.618 18 197.466 18.992 196.474 20.24C195.514 21.488 194.746 22.912 194.17 24.512C193.626 26.112 193.354 27.744 193.354 29.408C193.354 31.936 193.93 33.808 195.082 35.024C196.266 36.24 197.85 36.848 199.834 36.848ZM222.712 38L229.576 3.488H231.592L226.552 28.88H226.744L244.36 14.96H246.952L235.816 23.984L243.496 38H241.336L234.328 25.184L225.976 31.568L224.68 38H222.712ZM262.581 38.576C261.109 38.576 259.797 38.336 258.645 37.856C257.493 37.344 256.517 36.656 255.717 35.792C254.917 34.896 254.309 33.84 253.893 32.624C253.477 31.408 253.269 30.064 253.269 28.592C253.269 26.608 253.621 24.752 254.325 23.024C255.029 21.296 255.973 19.792 257.157 18.512C258.373 17.232 259.765 16.224 261.333 15.488C262.933 14.752 264.629 14.384 266.421 14.384C267.893 14.384 269.205 14.64 270.357 15.152C271.509 15.632 272.485 16.32 273.285 17.216C274.085 18.08 274.693 19.12 275.109 20.336C275.525 21.552 275.733 22.896 275.733 24.368C275.733 26.352 275.381 28.208 274.677 29.936C273.973 31.664 273.013 33.168 271.797 34.448C270.613 35.728 269.221 36.736 267.621 37.472C266.021 38.208 264.341 38.576 262.581 38.576ZM262.725 36.848C264.165 36.848 265.557 36.528 266.901 35.888C268.245 35.216 269.413 34.32 270.405 33.2C271.429 32.08 272.245 30.784 272.853 29.312C273.461 27.84 273.765 26.272 273.765 24.608C273.765 22.016 273.109 19.952 271.797 18.416C270.517 16.88 268.677 16.112 266.277 16.112C264.837 16.112 263.445 16.448 262.101 17.12C260.789 17.76 259.621 18.64 258.597 19.76C257.605 20.848 256.805 22.144 256.197 23.648C255.589 25.12 255.285 26.672 255.285 28.304C255.285 30.896 255.925 32.976 257.205 34.544C258.517 36.08 260.357 36.848 262.725 36.848ZM292.37 38L286.514 14.96H288.482L292.178 29.6C292.434 30.72 292.69 31.856 292.946 33.008C293.234 34.128 293.522 35.2 293.81 36.224H294.002C294.546 35.2 295.17 34.144 295.874 33.056C296.578 31.936 297.298 30.768 298.034 29.552L307.154 14.96H309.266L294.722 38H292.37Z" fill="#FF7A00"/>
</g>
</g>
<defs>
<filter id="filter0_d_11_5" x="-0.112" y="2.48798" width="123.192" height="43.088" filterUnits="userSpaceOnUse" color-interpolation-filters="sRGB">
<feFlood flood-opacity="0" result="BackgroundImageFix"/>
<feColorMatrix in="SourceAlpha" type="matrix" values="0 0 0 0 0 0 0 0 0 0 0 0 0 0 0 0 0 0 127 0" result="hardAlpha"/>
<feOffset dy="4"/>
<feGaussianBlur stdDeviation="2"/>
<feComposite in2="hardAlpha" operator="out"/>
<feColorMatrix type="matrix" values="0 0 0 0 0 0 0 0 0 0 0 0 0 0 0 0 0 0 0.25 0"/>
<feBlend mode="normal" in2="BackgroundImageFix" result="effect1_dropShadow_11_5"/>
<feBlend mode="normal" in="SourceGraphic" in2="effect1_dropShadow_11_5" result="shape"/>
</filter>
<filter id="filter1_d_11_5" x="127.712" y="3.48798" width="185.554" height="43.088" filterUnits="userSpaceOnUse" color-interpolation-filters="sRGB">
<feFlood flood-opacity="0" result="BackgroundImageFix"/>
<feColorMatrix in="SourceAlpha" type="matrix" values="0 0 0 0 0 0 0 0 0 0 0 0 0 0 0 0 0 0 127 0" result="hardAlpha"/>
<feOffset dy="4"/>
<feGaussianBlur stdDeviation="2"/>
<feComposite in2="hardAlpha" operator="out"/>
<feColorMatrix type="matrix" values="0 0 0 0 0 0 0 0 0 0 0 0 0 0 0 0 0 0 0.25 0"/>
<feBlend mode="normal" in2="BackgroundImageFix" result="effect1_dropShadow_11_5"/>
<feBlend mode="normal" in="SourceGraphic" in2="effect1_dropShadow_11_5" result="shape"/>
</filter>
<clipPath id="clip0_11_5">
<rect width="311" height="45" fill="white"/>
</clipPath>
</defs>
</svg>
